<svg width="175" height="37" viewBox="0 0 175 37" fill="none" xmlns="http://www.w3.org/2000/svg">
<g clip-path="url(#clip0_179_1210)">
<path d="M67.31 29.18V33.75C67.31 34.51 67.36 35.02 67.46 35.26C67.58 35.55 67.86 35.72 68.3 35.76L68.56 35.79C68.67 35.79 68.72 35.86 68.72 35.97C68.72 36.08 68.65 36.14 68.49 36.14C68.45 36.14 68.39 36.14 68.31 36.12C68.18 36.12 68.05 36.11 67.91 36.11L66.97 36.07H66.74C66.45 36.07 66.06 36.11 65.57 36.16C65.41 36.18 65.28 36.19 65.19 36.19C65.06 36.19 64.99 36.14 64.99 36.04C64.99 35.95 65.04 35.88 65.14 35.86C65.45 35.78 65.66 35.64 65.76 35.42C65.86 35.2 65.92 34.79 65.92 34.2V29.56C65.92 29.1 65.83 28.76 65.66 28.55C65.48 28.33 65.19 28.21 64.77 28.16C64.62 28.14 64.55 28.08 64.55 27.97C64.55 27.85 64.64 27.79 64.81 27.79C64.86 27.79 64.95 27.8 65.09 27.81C65.53 27.84 66.05 27.85 66.63 27.85C66.91 27.85 67.14 27.85 67.32 27.83L67.99 27.79C68.22 27.77 68.42 27.77 68.61 27.77C69.75 27.77 70.58 28.01 71.1 28.49C71.57 28.92 71.8 29.44 71.8 30.06C71.8 30.72 71.56 31.29 71.07 31.74C70.58 32.2 69.98 32.43 69.27 32.43C68.88 32.43 68.54 32.39 68.25 32.31C67.96 32.23 67.81 32.13 67.81 32.02C67.81 31.91 67.86 31.86 67.96 31.86C67.98 31.86 68.02 31.86 68.06 31.88C68.28 31.95 68.5 31.97 68.7 31.97C69.19 31.97 69.59 31.81 69.9 31.5C70.21 31.18 70.37 30.78 70.37 30.3C70.37 29.69 70.19 29.2 69.83 28.81C69.47 28.43 69 28.24 68.43 28.24C67.99 28.24 67.69 28.3 67.54 28.43C67.39 28.56 67.31 28.82 67.31 29.19" fill="#221F20"/>
<path d="M78.44 32.2599L77.65 30.4199C77.46 29.9799 77.33 29.7599 77.25 29.7599C77.2 29.7599 77.11 29.8999 76.99 30.1899L76.88 30.4399L76.18 32.0399L76.11 32.1899C76.08 32.2499 76.07 32.2999 76.07 32.3499C76.07 32.4799 76.21 32.5499 76.5 32.5499H78.28C78.43 32.5499 78.51 32.5099 78.51 32.4199C78.51 32.3999 78.5 32.3699 78.48 32.3199L78.45 32.2499L78.44 32.2599ZM78.21 28.4899L80.95 34.7999C81.09 35.1199 81.25 35.3499 81.44 35.5099C81.63 35.6699 81.87 35.7699 82.16 35.8199C82.23 35.8299 82.27 35.8899 82.27 35.9999C82.27 36.1099 82.22 36.1699 82.13 36.1599C82.08 36.1599 82 36.1399 81.9 36.1199C81.59 36.0499 81.09 36.0199 80.4 36.0199C79.71 36.0199 79.23 36.0499 78.98 36.1099C78.92 36.1299 78.87 36.1399 78.82 36.1399C78.71 36.1399 78.65 36.0799 78.65 35.9699C78.65 35.9099 78.7 35.8699 78.78 35.8399C78.97 35.7799 79.14 35.6799 79.26 35.5399C79.39 35.3899 79.45 35.2399 79.45 35.0799C79.45 34.8499 79.28 34.3599 78.93 33.5899C78.82 33.3599 78.7 33.2199 78.57 33.1899C78.44 33.1599 77.98 33.1399 77.19 33.1399H76.37L75.83 33.2399C75.68 33.3099 75.51 33.5699 75.33 34.0299L75.14 34.4999C75.08 34.6299 75.06 34.7699 75.06 34.8999C75.06 35.4099 75.42 35.6999 76.13 35.7799C76.28 35.7999 76.36 35.8599 76.36 35.9599C76.36 36.0699 76.28 36.1199 76.14 36.1199C76.07 36.1199 75.96 36.1199 75.83 36.0899C75.56 36.0399 75.32 36.0099 75.11 36.0099C74.92 36.0099 74.61 36.0299 74.18 36.0699C73.86 36.1099 73.67 36.1199 73.59 36.1199C73.48 36.1199 73.42 36.0699 73.42 35.9699C73.42 35.8899 73.48 35.8299 73.59 35.7799C73.81 35.7099 73.98 35.5799 74.12 35.3999C74.25 35.2099 74.45 34.8299 74.7 34.2499L76.35 30.4499C76.48 30.1499 76.57 29.9399 76.63 29.8299L77.19 28.6799L77.48 28.1099V28.1299C77.61 27.8199 77.7 27.6699 77.74 27.6699C77.8 27.6699 77.91 27.8399 78.07 28.1699L78.21 28.4899Z" fill="#221F20"/>
<path d="M88.05 29.02V31.1C88.05 31.36 88.08 31.52 88.15 31.59C88.22 31.66 88.37 31.69 88.62 31.69C89.34 31.69 89.78 31.68 89.96 31.65C90.13 31.62 90.29 31.54 90.44 31.41C90.74 31.14 90.88 30.78 90.88 30.31C90.88 29.71 90.68 29.21 90.28 28.81C89.88 28.41 89.37 28.22 88.76 28.22C88.48 28.22 88.3 28.28 88.2 28.39C88.09 28.5 88.04 28.71 88.04 29.02M88.05 33.73C88.05 34.5 88.12 35.01 88.26 35.28C88.4 35.55 88.68 35.71 89.09 35.74C89.26 35.76 89.35 35.82 89.35 35.94C89.35 36.05 89.28 36.11 89.14 36.11C89.1 36.11 89.01 36.11 88.89 36.1C88.54 36.07 88.21 36.06 87.89 36.06C87.62 36.06 87.38 36.06 87.17 36.08L86.66 36.13L86.25 36.16C86.14 36.17 86.06 36.18 86.01 36.18C85.86 36.18 85.79 36.12 85.79 36.01C85.79 35.92 85.83 35.86 85.91 35.84C86.18 35.75 86.38 35.64 86.48 35.5C86.59 35.36 86.64 35.14 86.64 34.85V34.04V29.68C86.64 29.2 86.58 28.87 86.46 28.71C86.26 28.44 85.94 28.28 85.49 28.23C85.32 28.21 85.24 28.13 85.24 28.02C85.24 27.91 85.3 27.84 85.41 27.84C85.46 27.84 85.53 27.84 85.63 27.86C85.94 27.89 86.28 27.91 86.65 27.91C87.06 27.91 87.55 27.89 88.13 27.84C88.81 27.79 89.28 27.76 89.54 27.76C90.3 27.76 90.94 27.97 91.44 28.38C91.94 28.8 92.19 29.32 92.19 29.96C92.19 30.36 92.08 30.72 91.86 31.05C91.64 31.37 91.33 31.62 90.94 31.79C90.86 31.82 90.82 31.86 90.83 31.91C90.83 31.95 90.85 32 90.89 32.05C90.93 32.11 90.98 32.2 91.05 32.33L91.59 33.28L92.21 34.38C92.42 34.75 92.61 35.01 92.78 35.16C92.95 35.31 93.14 35.38 93.37 35.38C93.46 35.38 93.55 35.38 93.63 35.36C93.68 35.35 93.72 35.34 93.76 35.34C93.83 35.34 93.87 35.39 93.87 35.48C93.87 35.59 93.71 35.73 93.37 35.88C93.04 36.03 92.75 36.1 92.49 36.1C92.07 36.1 91.69 35.9 91.34 35.49C90.99 35.08 90.54 34.32 89.98 33.19C89.76 32.74 89.58 32.46 89.44 32.34C89.3 32.22 89.07 32.16 88.75 32.16H88.37L88.1 32.21C88.04 32.24 88.01 32.34 88.01 32.5V33.72L88.05 33.73Z" fill="#221F20"/>
<path d="M99.67 34.2L99.72 34.81C99.77 35.12 99.89 35.36 100.08 35.52C100.27 35.68 100.51 35.77 100.81 35.77C101.01 35.77 101.11 35.83 101.11 35.95C101.11 36.07 100.98 36.13 100.72 36.13C100.6 36.13 100.44 36.12 100.23 36.1C99.71 36.04 99.28 36.01 98.95 36.01C98.55 36.01 98.23 36.03 97.99 36.07C97.79 36.11 97.64 36.13 97.56 36.13C97.47 36.13 97.41 36.09 97.39 36V35.95L97.56 35.8C97.85 35.7 98.04 35.57 98.14 35.42C98.24 35.27 98.29 35.02 98.29 34.67V34.14V29.34C98.29 28.97 98.22 28.71 98.09 28.55C97.96 28.39 97.73 28.29 97.38 28.23C97.17 28.2 97.04 28.17 96.99 28.14C96.93 28.11 96.9 28.06 96.9 27.98C96.9 27.86 96.95 27.81 97.05 27.81C97.12 27.81 97.23 27.83 97.37 27.86C97.52 27.89 97.76 27.91 98.1 27.91C98.32 27.91 98.61 27.9 98.94 27.87L99.38 27.84C99.8 27.81 100.12 27.79 100.34 27.79C100.47 27.79 100.54 27.84 100.54 27.94C100.54 28.01 100.53 28.06 100.51 28.09C100.49 28.12 100.44 28.14 100.36 28.15C100.07 28.2 99.88 28.28 99.8 28.39C99.72 28.5 99.67 28.73 99.67 29.08V34.21V34.2Z" fill="#221F20"/>
<path d="M107.01 27.6699C107.39 27.6699 107.76 27.7399 108.12 27.8899L108.52 28.0599C108.7 28.1299 108.83 28.1699 108.9 28.1699C108.96 28.1699 109.01 28.1599 109.08 28.1299L109.31 28.0199C109.31 28.0199 109.38 27.9999 109.41 27.9999C109.49 27.9999 109.54 28.0599 109.54 28.1999V28.6899C109.53 28.7699 109.54 28.8399 109.54 28.9099L109.62 29.4999L109.68 30.0499C109.68 30.0499 109.69 30.1399 109.69 30.1699C109.69 30.3399 109.64 30.4299 109.54 30.4299C109.47 30.4299 109.41 30.3599 109.38 30.1999C109.27 29.6399 108.97 29.1499 108.49 28.7499C108.02 28.3399 107.52 28.1399 106.99 28.1399C106.63 28.1399 106.31 28.2599 106.04 28.5099C105.77 28.7499 105.63 29.0399 105.63 29.3799C105.63 29.6899 105.75 29.9499 105.99 30.1799C106.14 30.3199 106.62 30.5599 107.43 30.8899C108.39 31.2799 109.02 31.6599 109.33 32.0399C109.7 32.4899 109.88 33.0399 109.88 33.6699C109.88 34.3699 109.62 34.9799 109.12 35.4999C108.61 36.0199 108.02 36.2799 107.34 36.2799C107.06 36.2799 106.62 36.1799 106.02 35.9899C105.74 35.8999 105.53 35.8399 105.4 35.8099C105.21 35.7699 105.11 35.7399 105.08 35.6999C105.05 35.6699 105.02 35.5599 105 35.3899C104.98 35.1999 104.92 34.9299 104.82 34.5699C104.67 34.0199 104.59 33.6799 104.59 33.5199C104.59 33.3299 104.66 33.2299 104.79 33.2299C104.85 33.2299 104.89 33.2799 104.91 33.3699C105.11 34.0599 105.45 34.6299 105.94 35.1099C106.43 35.5799 106.93 35.8099 107.46 35.8099C107.87 35.8099 108.23 35.6599 108.55 35.3499C108.87 35.0399 109.03 34.6799 109.03 34.2799C109.03 33.9599 108.95 33.7099 108.78 33.4999C108.61 33.2999 108.32 33.1099 107.91 32.9199L106.99 32.5099C106.12 32.1199 105.53 31.7599 105.22 31.4099C104.91 31.0599 104.75 30.6099 104.75 30.0299C104.75 29.3699 104.97 28.8099 105.4 28.3599C105.83 27.9099 106.37 27.6899 107.01 27.6899" fill="#221F20"/>
<path d="M5.50001 1.87002L10.64 13.1C10.86 13.59 11.05 13.84 11.2 13.83C11.35 13.83 11.5 13.65 11.66 13.31L16.39 3.23002C16.83 2.28002 17.15 1.68002 17.35 1.44002C17.54 1.19002 17.79 1.08002 18.1 1.08002C18.22 1.08002 18.4 1.10002 18.65 1.11002C18.89 1.14002 19.14 1.15002 19.4 1.15002C19.74 1.15002 20.17 1.12002 20.67 1.06002C20.93 1.04002 21.12 1.02002 21.25 1.02002C21.54 1.02002 21.69 1.14002 21.69 1.37002C21.69 1.56002 21.58 1.67002 21.35 1.69002C20.57 1.74002 20.02 2.01002 19.7 2.48002C19.39 2.95002 19.23 3.74002 19.23 4.85002V5.70002L19.54 13.5V14.01C19.55 15.17 19.76 16.02 20.16 16.58C20.57 17.14 21.23 17.46 22.16 17.56C22.39 17.59 22.51 17.72 22.51 17.93C22.51 18.16 22.22 18.28 21.66 18.28C21.49 18.28 21.22 18.26 20.85 18.21C19.83 18.1 19.1 18.04 18.68 18.04C17.8 18.04 17.07 18.08 16.48 18.17C15.93 18.25 15.55 18.29 15.35 18.29C15.15 18.29 15.03 18.18 15.03 17.97C15.03 17.81 15.15 17.69 15.4 17.62C15.88 17.49 16.22 17.28 16.41 16.98C16.61 16.69 16.71 16.25 16.71 15.68C16.71 15.4 16.71 15.21 16.7 15.09L16.33 6.77002C16.33 6.54002 16.27 6.43002 16.17 6.43002C16.04 6.43002 15.87 6.66002 15.65 7.12002L10.93 17.13L10.76 17.5C10.52 18.02 10.32 18.28 10.16 18.29C9.98001 18.29 9.67001 17.84 9.24001 16.91L8.60001 15.61L4.59001 6.68002L4.50001 6.49002C4.47001 6.44002 4.42001 6.40002 4.35001 6.40002C4.22001 6.40002 4.15001 6.57002 4.15001 6.92002V7.32002L3.98001 13.65V14.15L4.08001 15.33C4.31001 16.56 4.97001 17.31 6.05001 17.59C6.43001 17.68 6.61001 17.82 6.61001 18.02C6.61001 18.24 6.46001 18.35 6.17001 18.35C5.94001 18.35 5.67001 18.33 5.37001 18.29L4.48001 18.16C4.25001 18.13 3.93001 18.11 3.50001 18.11C2.74001 18.11 2.14001 18.14 1.71001 18.23C1.43001 18.28 1.22001 18.31 1.08001 18.31C0.82001 18.31 0.69001 18.2 0.69001 17.98C0.69001 17.83 0.79001 17.71 0.99001 17.65C1.64001 17.43 2.11001 17.04 2.40001 16.49C2.70001 15.93 2.85001 15.16 2.85001 14.18L3.19001 5.95002L3.23001 5.11002C3.23001 4.10002 2.99001 3.32002 2.50001 2.75002C2.01001 2.18002 1.34001 1.89002 0.49001 1.89002C0.17001 1.89002 0.0100098 1.77002 0.0100098 1.53002C0.0100098 1.29002 0.19001 1.16002 0.55001 1.16002C0.63001 1.16002 0.72001 1.16002 0.84001 1.17002L1.57001 1.22002C1.70001 1.22002 1.88001 1.23002 2.08001 1.23002C2.47001 1.23002 2.86001 1.21002 3.23001 1.16002C3.80001 1.09002 4.17001 1.06002 4.33001 1.06002C4.88001 1.06002 5.28001 1.32002 5.51001 1.85002" fill="#221F20"/>
<path d="M29.09 12.9899C28.37 12.9399 27.69 13.1999 27.03 13.7599C26.38 14.3299 26.05 14.9399 26.05 15.6099C26.05 16.7199 26.49 17.2699 27.38 17.2699C27.93 17.2699 28.41 17.1399 28.82 16.8799C29.05 16.7399 29.2 16.5199 29.28 16.1899C29.36 15.8599 29.41 15.3199 29.41 14.5599V13.5899L29.42 13.3299L29.35 13.0499C29.35 13.0499 29.22 12.9899 29.09 12.9899ZM29.34 12.2499C29.43 11.8699 29.48 11.5399 29.48 11.2699C29.48 10.4299 29.28 9.7499 28.88 9.2199C28.48 8.6899 27.96 8.4299 27.33 8.4299C26.53 8.4299 26.12 8.7599 26.12 9.4299C26.12 9.5499 26.12 9.6699 26.14 9.7899L26.18 10.0299C26.18 10.5899 25.53 10.8699 24.23 10.8699C23.89 10.8699 23.73 10.7299 23.75 10.4299C23.75 10.3699 23.77 10.2799 23.81 10.1599C23.83 10.0699 23.86 9.9599 23.88 9.8299C23.99 9.2999 24.24 8.8899 24.64 8.5999C25.53 7.9699 26.6 7.6499 27.85 7.6499C29.29 7.6499 30.38 7.9799 31.1 8.6499C31.65 9.1599 31.93 10.0399 31.93 11.2999C31.93 11.9299 31.91 12.7299 31.85 13.6999C31.8 14.7999 31.77 15.5299 31.77 15.8999C31.77 16.7599 32.11 17.1899 32.8 17.1899C33.04 17.1899 33.22 17.1599 33.34 17.0999C33.47 17.0399 33.57 17.0099 33.63 17.0099C33.75 17.0099 33.81 17.0699 33.81 17.1899C33.81 17.3999 33.65 17.5999 33.32 17.7799L32.83 18.0299L32.4 18.2799C32.1 18.4399 31.77 18.5199 31.41 18.5199C30.67 18.5199 30.05 18.0399 29.55 17.0899C28 18.0899 26.7 18.5799 25.68 18.5799C24.97 18.5799 24.41 18.3699 24.01 17.9599C23.61 17.5499 23.41 16.9799 23.41 16.2499C23.41 14.9199 23.99 13.9599 25.14 13.3599C25.85 12.9999 27.24 12.6199 29.32 12.2399" fill="#221F20"/>
<path d="M38.48 8.19002V15.29C38.48 16.14 38.61 16.73 38.86 17.07C39.11 17.41 39.59 17.59 40.29 17.63C40.57 17.65 40.71 17.75 40.71 17.92C40.71 18.14 40.38 18.25 39.71 18.25C39.63 18.25 39.45 18.23 39.17 18.21L38.22 18.12C37.7 18.07 37.36 18.05 37.19 18.05C36.74 18.05 36.15 18.11 35.39 18.23C35.21 18.27 35.06 18.29 34.96 18.29C34.78 18.29 34.7 18.2 34.7 18.04C34.7 17.93 34.75 17.85 34.86 17.79L35.29 17.58C35.47 17.49 35.63 17.27 35.76 16.93C35.89 16.59 35.95 16.23 35.95 15.85V15.32L35.94 11.07C35.94 10.42 35.87 9.97002 35.73 9.72002C35.59 9.47002 35.34 9.34002 34.99 9.34002H34.7C34.54 9.34002 34.43 9.31002 34.37 9.24002C34.35 9.20002 34.33 9.14002 34.33 9.06002C34.33 8.85002 34.59 8.69002 35.1 8.58002C36.38 8.31002 37.38 7.91002 38.11 7.36002C38.2 7.30002 38.27 7.27002 38.32 7.27002C38.43 7.27002 38.49 7.36002 38.49 7.51002V7.62002C38.47 7.69002 38.47 7.89002 38.47 8.18002" fill="#221F20"/>
<path d="M45.44 7.64989C46.01 7.64989 46.63 7.74989 47.31 7.93989C47.65 8.03989 47.84 8.19989 47.86 8.42989L47.88 8.98989L47.94 9.77989L47.96 10.2099C47.98 10.2699 47.98 10.3199 47.98 10.3599C47.98 10.5199 47.89 10.5999 47.72 10.5999C47.59 10.5999 47.37 10.3199 47.06 9.76989C46.47 8.69989 45.72 8.16989 44.82 8.16989C44.37 8.16989 43.98 8.30989 43.66 8.58989C43.34 8.87989 43.17 9.20989 43.17 9.58989C43.17 10.2899 43.66 10.8399 44.64 11.2399L45.5 11.5999C46.24 11.9099 46.74 12.1499 47 12.3199C47.27 12.4899 47.52 12.7299 47.76 13.0499C48.17 13.5899 48.37 14.2599 48.37 15.0599C48.37 16.0499 48.04 16.8899 47.38 17.5699C46.72 18.2599 45.91 18.5999 44.96 18.5999C44.44 18.5999 43.81 18.5099 43.06 18.3299L42.19 18.1199L41.63 18.0299C41.45 17.9999 41.35 17.8799 41.35 17.6799C41.35 17.6099 41.35 17.5099 41.36 17.3699C41.38 17.2299 41.39 17.0699 41.39 16.8799L41.35 15.5099V14.8999C41.34 14.7099 41.35 14.5899 41.39 14.5399C41.43 14.4899 41.52 14.4699 41.68 14.4699C41.81 14.4699 41.9 14.5799 41.95 14.8099C42.05 15.3299 42.33 15.9599 42.78 16.6999C43.33 17.5699 44.04 17.9999 44.93 17.9999C45.43 17.9999 45.85 17.8399 46.19 17.5299C46.52 17.2199 46.69 16.8299 46.69 16.3499C46.69 15.8299 46.53 15.4099 46.21 15.0999C45.89 14.7899 45.27 14.4599 44.37 14.0999C43.29 13.6799 42.54 13.2399 42.12 12.7599C41.7 12.2899 41.49 11.6499 41.49 10.8399C41.49 9.85989 41.84 9.07989 42.54 8.50989C43.24 7.92989 44.19 7.63989 45.39 7.63989" fill="#221F20"/>
<path d="M55.24 8.3399C54.43 8.3399 53.79 8.6799 53.31 9.3599C52.83 10.0399 52.6 10.9699 52.6 12.1299C52.6 13.7199 52.96 15.0699 53.7 16.2099C54.43 17.3499 55.32 17.9099 56.35 17.9099C57.14 17.9099 57.78 17.5899 58.27 16.9399C58.76 16.2899 59.01 15.4599 59.01 14.4399C59.01 12.7399 58.64 11.2899 57.91 10.1099C57.18 8.9299 56.28 8.3299 55.23 8.3299M55.89 7.6499C57.47 7.6499 58.78 8.1499 59.81 9.1499C60.84 10.1499 61.35 11.4299 61.35 12.9799C61.35 14.5299 60.79 15.9099 59.67 16.9899C58.55 18.0699 57.16 18.5999 55.5 18.5999C53.94 18.5999 52.63 18.0999 51.59 17.1099C50.55 16.1199 50.03 14.8699 50.03 13.3599C50.03 11.7799 50.6 10.4299 51.74 9.3299C52.88 8.2199 54.26 7.6599 55.89 7.6599" fill="#221F20"/>
<path d="M74.53 12.9599V15.4999C74.53 16.0399 74.56 16.4099 74.62 16.6099C74.68 16.8099 74.81 16.9899 75.02 17.1699C75.32 17.4099 75.71 17.5499 76.18 17.5999C76.44 17.6399 76.57 17.7399 76.57 17.8999C76.57 18.1499 76.27 18.2799 75.68 18.2799C75.55 18.2799 75.38 18.2599 75.14 18.2299L74.32 18.1399C73.95 18.0999 73.66 18.0799 73.45 18.0799C72.66 18.0799 72.02 18.1299 71.54 18.2299C71.35 18.2699 71.18 18.2799 71.04 18.2799C70.86 18.2799 70.76 18.1899 70.76 17.9999C70.76 17.8599 70.86 17.7599 71.05 17.6799C71.42 17.5599 71.66 17.3599 71.79 17.0899C71.92 16.8199 71.98 16.3699 71.98 15.7299V12.7699C71.98 11.6299 71.75 10.7299 71.3 10.0599C70.85 9.38991 70.23 9.05991 69.44 9.05991C68.74 9.05991 68.17 9.24991 67.74 9.63991C67.31 10.0199 67.1 10.5299 67.1 11.1499V15.3299C67.1 16.0999 67.24 16.6599 67.53 17.0199C67.82 17.3799 68.3 17.5799 68.99 17.6399C69.22 17.6599 69.34 17.7599 69.34 17.9299C69.34 18.1599 69.19 18.2799 68.9 18.2799C68.62 18.2799 68.29 18.2599 67.91 18.2199C66.96 18.1099 66.31 18.0499 65.95 18.0499C65.47 18.0499 64.9 18.0899 64.27 18.1799C63.97 18.2299 63.77 18.2499 63.65 18.2499C63.44 18.2499 63.34 18.1599 63.34 17.9799C63.34 17.8599 63.41 17.7699 63.55 17.7099C63.98 17.5499 64.25 17.3799 64.36 17.1899C64.48 16.9999 64.53 16.6599 64.53 16.1499V15.7399L64.54 11.3199V10.8299C64.53 10.2299 64.47 9.80991 64.34 9.57991C64.22 9.34991 64 9.22991 63.67 9.22991H63.09C63.01 9.22991 62.94 9.20991 62.9 9.15991C62.86 9.11991 62.84 9.04991 62.84 8.96991C62.84 8.80991 62.9 8.69991 63.03 8.63991C63.16 8.57991 63.53 8.46991 64.14 8.31991C65.19 8.07991 66.07 7.70991 66.77 7.22991C66.83 7.17991 66.88 7.15991 66.93 7.15991C67.03 7.15991 67.08 7.22991 67.08 7.39991L67.04 8.02991V8.73991L67.1 9.21991C67.14 9.31991 67.19 9.36991 67.26 9.37991C67.33 9.38991 67.46 9.27991 67.66 9.03991C68.43 8.10991 69.45 7.63991 70.71 7.63991C72.07 7.63991 73.04 8.04991 73.63 8.86991C74.22 9.68991 74.51 11.0499 74.51 12.9499" fill="#221F20"/>
<path d="M88.97 1.87002L94.11 13.1C94.34 13.59 94.52 13.84 94.67 13.83C94.82 13.83 94.98 13.65 95.14 13.31L99.87 3.23002C100.31 2.28002 100.63 1.68002 100.83 1.44002C101.03 1.19002 101.27 1.08002 101.59 1.08002C101.71 1.08002 101.89 1.10002 102.14 1.11002C102.38 1.14002 102.63 1.15002 102.9 1.15002C103.24 1.15002 103.67 1.12002 104.17 1.06002C104.43 1.04002 104.62 1.02002 104.75 1.02002C105.04 1.02002 105.19 1.14002 105.19 1.37002C105.19 1.56002 105.08 1.67002 104.85 1.69002C104.06 1.74002 103.52 2.01002 103.2 2.48002C102.89 2.95002 102.73 3.74002 102.73 4.85002V5.70002L103.04 13.5V14.01C103.05 15.17 103.25 16.02 103.66 16.58C104.06 17.14 104.73 17.46 105.66 17.56C105.9 17.59 106.01 17.72 106.01 17.93C106.01 18.16 105.73 18.28 105.16 18.28C104.99 18.28 104.72 18.26 104.35 18.21C103.33 18.1 102.6 18.04 102.18 18.04C101.3 18.04 100.57 18.08 99.98 18.17C99.42 18.25 99.05 18.29 98.85 18.29C98.65 18.29 98.53 18.18 98.53 17.97C98.53 17.81 98.65 17.69 98.9 17.62C99.38 17.49 99.72 17.28 99.92 16.98C100.12 16.69 100.22 16.25 100.22 15.68C100.22 15.4 100.22 15.21 100.21 15.09L99.84 6.77002C99.84 6.54002 99.77 6.43002 99.67 6.43002C99.54 6.43002 99.37 6.66002 99.16 7.12002L94.44 17.13L94.27 17.5C94.03 18.02 93.83 18.28 93.67 18.29C93.49 18.29 93.18 17.84 92.75 16.91L92.11 15.61L88.09 6.65002L88 6.46002C87.96 6.41002 87.92 6.37002 87.85 6.37002C87.72 6.37002 87.65 6.54002 87.65 6.89002V7.29002L87.48 13.62V14.12L87.58 15.3C87.81 16.53 88.47 17.28 89.54 17.56C89.92 17.65 90.11 17.79 90.11 17.99C90.11 18.21 89.96 18.32 89.67 18.32C89.45 18.32 89.18 18.3 88.86 18.26L87.97 18.13C87.74 18.1 87.42 18.08 86.99 18.08C86.23 18.08 85.63 18.11 85.2 18.2C84.93 18.25 84.71 18.28 84.57 18.28C84.31 18.28 84.18 18.17 84.18 17.95C84.18 17.8 84.28 17.68 84.48 17.62C85.13 17.4 85.6 17.01 85.9 16.46C86.19 15.9 86.34 15.13 86.34 14.15L86.68 5.92002L86.72 5.08002C86.72 4.07002 86.47 3.29002 85.99 2.72002C85.5 2.15002 84.83 1.86002 83.98 1.86002C83.66 1.86002 83.5 1.74002 83.5 1.50002C83.5 1.26002 83.68 1.13002 84.04 1.13002C84.11 1.13002 84.21 1.13002 84.33 1.14002L85.06 1.19002C85.2 1.19002 85.37 1.20002 85.58 1.20002C85.97 1.20002 86.35 1.18002 86.73 1.13002C87.3 1.06002 87.67 1.03002 87.83 1.03002C88.38 1.03002 88.77 1.29002 89.01 1.82002" fill="#221F20"/>
<path d="M112.55 12.9899C111.84 12.9399 111.15 13.1999 110.5 13.7599C109.85 14.3299 109.52 14.9399 109.52 15.6099C109.52 16.7199 109.96 17.2699 110.85 17.2699C111.4 17.2699 111.88 17.1399 112.29 16.8799C112.52 16.7399 112.67 16.5199 112.75 16.1899C112.84 15.8599 112.88 15.3199 112.88 14.5599V13.5899L112.89 13.3299L112.81 13.0499C112.81 13.0499 112.68 12.9899 112.54 12.9899M112.8 12.2499C112.89 11.8699 112.94 11.5399 112.94 11.2699C112.94 10.4299 112.74 9.7499 112.34 9.2199C111.94 8.6899 111.42 8.4299 110.79 8.4299C109.99 8.4299 109.58 8.7599 109.58 9.4299C109.58 9.5499 109.58 9.6699 109.61 9.7899L109.65 10.0299C109.65 10.5899 109 10.8699 107.71 10.8699C107.37 10.8699 107.21 10.7299 107.23 10.4299C107.23 10.3699 107.25 10.2799 107.3 10.1599C107.32 10.0699 107.35 9.9599 107.37 9.8299C107.48 9.2999 107.73 8.8899 108.13 8.5999C109.02 7.9699 110.09 7.6499 111.34 7.6499C112.79 7.6499 113.87 7.9799 114.59 8.6499C115.14 9.1599 115.42 10.0399 115.42 11.2999C115.42 11.9299 115.39 12.7299 115.35 13.6999C115.3 14.7999 115.27 15.5299 115.27 15.8999C115.27 16.7599 115.62 17.1899 116.3 17.1899C116.54 17.1899 116.72 17.1599 116.84 17.0999C116.97 17.0399 117.07 17.0099 117.13 17.0099C117.25 17.0099 117.31 17.0699 117.31 17.1899C117.31 17.3999 117.14 17.5999 116.82 17.7799L116.33 18.0299L115.9 18.2799C115.6 18.4399 115.26 18.5199 114.91 18.5199C114.17 18.5199 113.55 18.0399 113.05 17.0899C111.49 18.0899 110.2 18.5799 109.18 18.5799C108.47 18.5799 107.91 18.3699 107.51 17.9599C107.11 17.5499 106.91 16.9799 106.91 16.2499C106.91 14.9199 107.49 13.9599 108.64 13.3599C109.35 12.9999 110.74 12.6199 112.82 12.2399" fill="#221F20"/>
<path d="M121.94 11.95V15.47C121.94 16.79 122.56 17.53 123.79 17.7C124.05 17.73 124.18 17.84 124.18 18.01C124.18 18.22 124.08 18.33 123.89 18.33C123.8 18.33 123.68 18.32 123.54 18.29C122.7 18.16 121.84 18.09 120.95 18.09C120.48 18.09 120.06 18.11 119.68 18.14L118.9 18.22C118.76 18.24 118.61 18.24 118.46 18.24C118.22 18.24 118.11 18.13 118.11 17.91C118.11 17.76 118.21 17.66 118.42 17.6C119.08 17.44 119.41 16.82 119.41 15.74V15.22L119.4 10.74C119.4 10.14 119.32 9.74 119.17 9.54C119.01 9.34 118.68 9.23 118.17 9.19C117.98 9.17 117.88 9.08 117.88 8.92C117.88 8.73 117.99 8.62 118.22 8.58C119.37 8.4 120.36 8.08 121.18 7.61L121.67 7.32C121.74 7.27 121.79 7.25 121.85 7.25C121.98 7.25 122.04 7.35 122.04 7.53C122.04 7.59 122.04 7.71 122.03 7.89L121.99 8.6L121.94 9.38V9.52C121.99 9.64 122.05 9.7 122.14 9.71C122.22 9.71 122.4 9.52 122.69 9.1C122.91 8.78 123.26 8.44 123.73 8.08C124.2 7.71 124.52 7.53 124.7 7.53C124.99 7.53 125.41 7.75 125.98 8.18C126.55 8.62 126.84 8.94 126.85 9.16C126.85 9.23 126.72 9.53 126.44 10.04C126.09 10.69 125.79 11.01 125.52 11.01C125.41 11.01 125.31 10.97 125.22 10.88L124.87 10.57C124.44 10.17 123.96 9.98 123.41 9.98C122.43 9.98 121.94 10.63 121.94 11.94" fill="#221F20"/>
<path d="M132.39 8.17991C131.75 8.17991 131.24 8.42991 130.88 8.92991C130.51 9.42991 130.33 10.1099 130.33 10.9699C130.33 11.9099 130.53 12.6699 130.93 13.2799C131.33 13.8899 131.83 14.1899 132.43 14.1899C133.03 14.1899 133.53 13.9399 133.91 13.4499C134.28 12.9499 134.47 12.2999 134.47 11.4999C134.47 9.27991 133.78 8.17991 132.4 8.17991M130.64 18.9599C130.32 18.9599 130.05 19.0699 129.84 19.2999C129.63 19.5299 129.52 19.8099 129.52 20.1499C129.52 20.7699 129.81 21.2599 130.4 21.6299C130.98 21.9899 131.78 22.1799 132.8 22.1799C133.68 22.1799 134.4 22.0199 134.94 21.7099C135.49 21.3899 135.76 20.9799 135.76 20.4599C135.76 20.0199 135.59 19.7299 135.26 19.5799C134.93 19.4399 134.15 19.3099 132.93 19.2199C132.21 19.1699 131.66 19.1099 131.28 19.0499L130.95 18.9799C130.85 18.9599 130.75 18.9599 130.65 18.9599M135.71 8.67991C136.31 8.60991 136.76 8.45991 137.06 8.21991C137.36 7.97991 137.54 7.62991 137.61 7.15991C137.63 6.98991 137.71 6.90991 137.86 6.90991C138 6.90991 138.08 7.01991 138.08 7.23991C138.08 7.44991 138.03 7.88991 137.92 8.57991C137.86 9.04991 137.82 9.34991 137.81 9.48991C137.79 9.67991 137.73 9.82991 137.63 9.91991C137.53 10.0099 137.27 10.1499 136.84 10.3499C136.85 10.5299 136.86 10.6599 136.88 10.7399C136.92 11.1399 136.94 11.3899 136.94 11.4799C136.94 12.3899 136.51 13.1499 135.64 13.7699C134.77 14.3899 133.71 14.6999 132.44 14.6999C132.04 14.6999 131.62 14.6599 131.17 14.5799C131.01 14.5399 130.86 14.5299 130.73 14.5299C130.47 14.5299 130.25 14.6299 130.07 14.8399C129.9 15.0499 129.81 15.2999 129.81 15.5999C129.81 16.3199 130.44 16.6799 131.7 16.6799C134.14 16.6799 135.76 16.8299 136.56 17.1399C137.36 17.4499 137.76 18.0699 137.76 19.0099C137.76 20.0499 137.31 20.9299 136.41 21.6499C135.51 22.3699 134.16 22.7299 132.38 22.7299C130.83 22.7299 129.64 22.5399 128.82 22.1699C128 21.7999 127.59 21.2599 127.59 20.5499C127.59 20.1899 127.72 19.8499 127.98 19.5299C128.24 19.2099 128.54 19.0099 128.9 18.9499C129.29 18.8699 129.49 18.7899 129.5 18.7299L129.4 18.5599L129.03 18.1799C128.66 17.7899 128.47 17.3299 128.47 16.8199C128.47 16.0899 128.76 15.4599 129.32 14.9399L129.72 14.5599C129.8 14.4799 129.83 14.3999 129.83 14.3199C129.83 14.1999 129.66 14.0399 129.32 13.8299C128.95 13.6199 128.62 13.2499 128.35 12.7199C128.07 12.1799 127.93 11.6799 127.93 11.2099C127.93 10.1799 128.35 9.33991 129.2 8.65991C130.05 7.98991 131.12 7.64991 132.43 7.64991C133.74 7.64991 134.79 7.98991 135.74 8.66991" fill="#221F20"/>
<path d="M143.16 8.19002V15.29C143.16 16.14 143.29 16.73 143.55 17.07C143.8 17.41 144.28 17.59 144.97 17.63C145.25 17.65 145.38 17.75 145.38 17.92C145.38 18.14 145.05 18.25 144.38 18.25C144.3 18.25 144.12 18.23 143.84 18.21L142.9 18.12C142.38 18.07 142.04 18.05 141.87 18.05C141.42 18.05 140.82 18.11 140.07 18.23C139.88 18.27 139.74 18.29 139.64 18.29C139.47 18.29 139.38 18.2 139.38 18.04C139.38 17.93 139.43 17.85 139.54 17.79L139.97 17.58C140.16 17.49 140.31 17.27 140.44 16.93C140.57 16.59 140.64 16.23 140.64 15.85V15.32L140.63 11.07C140.63 10.42 140.56 9.97002 140.42 9.72002C140.28 9.47002 140.03 9.34002 139.68 9.34002H139.39C139.23 9.34002 139.12 9.31002 139.07 9.24002C139.04 9.20002 139.03 9.14002 139.03 9.06002C139.03 8.85002 139.29 8.69002 139.8 8.58002C141.08 8.31002 142.08 7.91002 142.81 7.36002C142.9 7.30002 142.97 7.27002 143.02 7.27002C143.13 7.27002 143.19 7.36002 143.19 7.51002V7.62002C143.17 7.69002 143.17 7.89002 143.17 8.18002" fill="#221F20"/>
<path d="M150.72 8.26012C150.15 8.26012 149.66 8.54012 149.23 9.10012C148.8 9.66012 148.59 10.3201 148.59 11.0801C148.59 11.3201 148.65 11.4701 148.77 11.5101C148.89 11.5601 149.22 11.5901 149.75 11.5901C150.03 11.5901 150.31 11.5901 150.63 11.5601C151.38 11.5301 151.81 11.5101 151.93 11.5101C152.67 11.5101 153.03 11.2901 153.03 10.8401C153.03 10.1601 152.8 9.57012 152.32 9.05012C151.85 8.53012 151.31 8.27012 150.71 8.27012M151.07 7.62012C152.37 7.62012 153.48 8.13012 154.42 9.15012C155.21 10.0201 155.6 10.8801 155.6 11.7401C155.6 12.0701 155.38 12.2301 154.92 12.2301L154.34 12.2001H154.05L153.28 12.2201L150.9 12.2601H149.66H149.23C148.99 12.2601 148.83 12.2901 148.76 12.3501C148.67 12.4401 148.62 12.5901 148.62 12.8201C148.62 13.9301 148.98 14.9101 149.71 15.7601C150.44 16.6201 151.27 17.0401 152.22 17.0401C153.28 17.0401 154.14 16.7301 154.77 16.1201L155.17 15.7201C155.24 15.6501 155.31 15.6201 155.38 15.6201C155.56 15.6201 155.65 15.7101 155.65 15.8901C155.65 16.1301 155.33 16.5401 154.68 17.1101C153.54 18.1101 152.32 18.6101 151.01 18.6101C149.57 18.6101 148.38 18.1101 147.47 17.1101C146.55 16.1201 146.1 14.8301 146.1 13.2501C146.1 11.6701 146.59 10.4101 147.56 9.30012C148.54 8.18012 149.69 7.63012 151.03 7.63012" fill="#221F20"/>
<path d="M161 3.72999V15.22C161 16.05 161.13 16.62 161.36 16.94C161.59 17.26 162.05 17.48 162.74 17.6C162.95 17.63 163.08 17.67 163.12 17.71C163.15 17.74 163.18 17.82 163.18 17.95C163.18 18.15 163.1 18.26 162.93 18.26C162.84 18.26 162.69 18.25 162.49 18.22C161.82 18.13 160.99 18.09 160.01 18.09C158.92 18.09 158.15 18.13 157.71 18.22C157.58 18.25 157.48 18.26 157.42 18.26C157.24 18.26 157.16 18.15 157.16 17.94C157.16 17.83 157.26 17.73 157.47 17.65C158.1 17.39 158.42 16.84 158.42 16L158.44 15.28V14.94L158.45 4.82999C158.45 3.74999 158.36 3.00999 158.18 2.61999C158 2.22999 157.67 2.02999 157.18 2.02999C156.94 2.02999 156.82 1.91999 156.82 1.69999C156.82 1.56999 156.87 1.47999 156.96 1.43999C157.05 1.38999 157.31 1.32999 157.72 1.23999C158.79 1.00999 159.65 0.70999 160.29 0.31999L160.72 0.0699902C160.79 0.0299902 160.87 -9.76585e-06 160.94 -0.0100098C161.07 -0.0100098 161.13 0.0699902 161.13 0.23999C161.13 0.32999 161.12 0.53999 161.1 0.86999C161.03 1.99999 160.99 2.94999 160.99 3.72999" fill="#221F20"/>
<path d="M169.69 12.9899C168.97 12.9399 168.29 13.1999 167.63 13.7599C166.98 14.3299 166.65 14.9399 166.65 15.6099C166.65 16.7199 167.09 17.2699 167.98 17.2699C168.53 17.2699 169.01 17.1399 169.42 16.8799C169.65 16.7399 169.8 16.5199 169.88 16.1899C169.97 15.8599 170.01 15.3199 170.01 14.5599V13.5899L170.02 13.3299L169.94 13.0499C169.94 13.0499 169.81 12.9899 169.68 12.9899M169.94 12.2499C170.03 11.8699 170.08 11.5399 170.08 11.2699C170.08 10.4299 169.88 9.7499 169.48 9.2199C169.08 8.6899 168.56 8.4299 167.93 8.4299C167.13 8.4299 166.72 8.7599 166.72 9.4299C166.72 9.5499 166.72 9.6699 166.74 9.7899L166.78 10.0299C166.78 10.5899 166.13 10.8699 164.84 10.8699C164.5 10.8699 164.34 10.7299 164.36 10.4299C164.36 10.3699 164.38 10.2799 164.42 10.1599C164.44 10.0699 164.47 9.9599 164.49 9.8299C164.6 9.2999 164.85 8.8899 165.25 8.5999C166.14 7.9699 167.21 7.6499 168.46 7.6499C169.91 7.6499 170.99 7.9799 171.71 8.6499C172.26 9.1599 172.54 10.0399 172.54 11.2999C172.54 11.9299 172.52 12.7299 172.47 13.6999C172.42 14.7999 172.39 15.5299 172.39 15.8999C172.39 16.7599 172.74 17.1899 173.42 17.1899C173.66 17.1899 173.84 17.1599 173.96 17.0999C174.09 17.0399 174.19 17.0099 174.24 17.0099C174.36 17.0099 174.42 17.0699 174.42 17.1899C174.42 17.3999 174.26 17.5999 173.93 17.7799L173.44 18.0299L173.01 18.2799C172.71 18.4399 172.38 18.5199 172.02 18.5199C171.28 18.5199 170.66 18.0399 170.16 17.0899C168.61 18.0899 167.31 18.5799 166.29 18.5799C165.58 18.5799 165.03 18.3699 164.62 17.9599C164.22 17.5499 164.02 16.9799 164.02 16.2499C164.02 14.9199 164.6 13.9599 165.75 13.3599C166.46 12.9999 167.85 12.6199 169.93 12.2399" fill="#221F20"/>
<path d="M35.68 3.36002C35.68 2.48002 36.39 1.77002 37.27 1.77002C38.15 1.77002 38.86 2.48002 38.86 3.36002C38.86 4.24002 38.15 4.95002 37.27 4.95002C36.39 4.95002 35.68 4.24002 35.68 3.36002Z" fill="#221F20"/>
<path d="M140.16 3.21012C140.16 2.33012 140.88 1.62012 141.75 1.62012C142.62 1.62012 143.34 2.33012 143.34 3.21012C143.34 4.09012 142.63 4.80012 141.75 4.80012C140.87 4.80012 140.16 4.09012 140.16 3.21012Z" fill="#221F20"/>
</g>
<defs>
<clipPath id="clip0_179_1210">
<rect width="174.43" height="36.25" fill="white"/>
</clipPath>
</defs>
</svg>
